# xmcd CD database file
#
# Track frame offsets:
#	150
#	160487
#	214972
#	298387
#
# Disc length: 4071 seconds
#
# Revision: 0
# Processed by: cddbd v1.5PL3 Copyright (c) Steve Scherf et al.
# Submitted via: CDex 1.51
#
DISCID=420fe504
DTITLE=Hamiet Bluiett - Im/possible to Keep disc 2
DYEAR=1979
DGENRE=Jazz
TTITLE0=Pretty Tune
TTITLE1=Yusuf/Sankofa
TTITLE2=Tune Up
TTITLE3=R.B.
EXTD=YEAR: 1979
EXTT0=
EXTT1=
EXTT2=
EXTT3=
PLAYORDER=
